Coordinates
version=1
nRows=6
nColumns=36
inDegrees=yes

Units are S.I. units (second, meters, Newtons, ...)
If the header above contains a line with 'inDegrees', this indicates whether rotational values are in degrees (yes) or radians (no).

endheader
time	pelvis_tilt	pelvis_list	pelvis_rotation	pelvis_tx	pelvis_ty	pelvis_tz	hip_flexion_r	hip_adduction_r	hip_rotation_r	knee_angle_r	knee_angle_r_beta	ankle_angle_r	subtalar_angle_r	mtp_angle_r	hip_flexion_l	hip_adduction_l	hip_rotation_l	knee_angle_l	knee_angle_l_beta	ankle_angle_l	subtalar_angle_l	mtp_angle_l	lumbar_extension	lumbar_bending	lumbar_rotation	arm_flex_r	arm_add_r	arm_rot_r	elbow_flex_r	pro_sup_r	arm_flex_l	arm_add_l	arm_rot_l	elbow_flex_l	pro_sup_l
      1.25000000	     -7.95577476	      4.17247898	      0.98734500	     -0.47411293	      1.28583095	     -0.56715887	     21.14263632	     -6.62949564	    -16.15883086	      4.92542419	      0.08596487	    -31.04235748	      5.68869275	     -6.10913520	     20.81130861	     -0.87753758	    -11.98914968	      6.37540463	      0.11127180	    -21.60619925	     -3.57852803	     -6.10913520	    -15.89698810	     -0.29455710	     -1.27881407	    -59.83705516	    -32.43471727	    -95.96592433	    143.76944121	     87.00471701	    -15.04556427	    -38.16375335	    -48.08508638	    149.18244155	     95.11293209
      1.26000000	     -7.69109957	      4.42925591	      1.23306582	     -0.46150824	      1.26638261	     -0.56743304	     21.08711575	     -7.01059133	    -17.28415864	      3.97211738	      0.06932653	    -31.54032856	      7.24191469	     -6.37485928	     21.15474029	     -0.68767047	    -12.39112080	      6.20530901	      0.10830307	    -22.47953594	     -2.44302631	     -6.37485928	    -16.14107808	     -0.30070497	     -1.81429619	    -63.05801560	    -29.71643048	    -96.20902907	    145.53079180	     84.64555130	    -20.01239158	    -37.70219536	    -52.34468274	    149.29833610	    101.04843706
      1.27000000	     -7.44673088	      4.70438559	      1.50471459	     -0.44892374	      1.24598347	     -0.56757708	     21.09875268	     -7.42888493	    -18.44308272	      3.22825503	      0.05634368	    -32.05236990	      8.86559939	     -6.55401131	     21.62604355	     -0.51050202	    -12.83626792	      6.30018782	      0.10995902	    -23.33634770	     -1.09900981	     -6.55401131	    -16.32208145	     -0.37706026	     -2.50866757	    -65.70378626	    -26.86977648	    -95.45260845	    147.12875352	     85.14283150	    -25.21893288	    -36.57318691	    -56.46860736	    149.46041046	    104.55746214
      1.28000000	     -7.18237623	      4.98831692	      1.77495461	     -0.43657334	      1.22468132	     -0.56751238	     21.21583688	     -7.86419611	    -19.42796766	      2.86705127	      0.05003948	    -32.51224591	     10.23030339	     -6.73571233	     22.18277361	     -0.37102943	    -13.19948897	      6.67267732	      0.11646019	    -24.22986181	      0.32842743	     -6.73571233	    -16.53689830	     -0.54664616	     -3.22488071	    -67.84737490	    -23.83350443	    -93.76155928	    148.38891555	     87.63967497	    -30.35930374	    -34.88520497	    -60.31850393	    149.56621243	    108.35848214
      1.29000000	     -6.85874176	      5.27391921	      2.05461619	     -0.42448334	      1.20270886	     -0.56723910	     21.38077024	     -8.30979486	    -20.33982175	      2.89478033	      0.05052345	    -33.13219986	     10.92263172	     -6.83213632	     22.79213338	     -0.25440494	    -13.37771151	      7.35900332	      0.12843884	    -25.01344155	      1.77743664	     -6.83213632	    -16.84640041	     -0.83239451	     -4.20196254	    -69.25033540	    -21.07423589	    -90.78162943	    149.13014346	     90.71708117	    -35.44359259	    -32.33338439	    -63.69720187	    149.64522393	    110.07002951
      1.30000000	     -6.56491608	      5.43775140	      2.28114613	     -0.41290291	      1.17994556	     -0.56672786	     21.72365727	     -8.63304486	    -20.71048139	      3.49608865	      0.06101826	    -33.58521539	     10.54069819	     -6.93961452	     23.65076036	     -0.35659367	    -13.50156080	      8.58985537	      0.14992126	    -25.19232204	      3.47214528	     -6.93961452	    -17.12125647	     -1.05793973	     -4.80943878	    -70.15061932	    -17.91620615	    -87.15125106	    149.35384710	     99.06596976	    -39.60690986	    -29.43279033	    -65.20392654	    149.67810354	    113.33556011
